<?xml version="1.0" encoding="UTF-8" standalone="no"?>
<!-- Created with Inkscape (http://www.inkscape.org/) -->

<svg
   xmlns:dc="http://purl.org/dc/elements/1.1/"
   xmlns:cc="http://creativecommons.org/ns#"
   xmlns:rdf="http://www.w3.org/1999/02/22-rdf-syntax-ns#"
   xmlns:svg="http://www.w3.org/2000/svg"
   xmlns="http://www.w3.org/2000/svg"
   xmlns:sodipodi="http://sodipodi.sourceforge.net/DTD/sodipodi-0.dtd"
   xmlns:inkscape="http://www.inkscape.org/namespaces/inkscape"
   version="1.1"
   id="svg2"
   xml:space="preserve"
   width="658.66669"
   height="493.33334"
   viewBox="0 0 658.66669 493.33334"
   sodipodi:docname="whatplans.svg"
   inkscape:version="0.92.2 5c3e80d, 2017-08-06"><metadata
     id="metadata8"><rdf:RDF><cc:Work
         rdf:about=""><dc:format>image/svg+xml</dc:format><dc:type
           rdf:resource="http://purl.org/dc/dcmitype/StillImage" /><dc:title></dc:title></cc:Work></rdf:RDF></metadata><defs
     id="defs6" /><sodipodi:namedview
     pagecolor="#ffffff"
     bordercolor="#666666"
     borderopacity="1"
     objecttolerance="10"
     gridtolerance="10"
     guidetolerance="10"
     inkscape:pageopacity="0"
     inkscape:pageshadow="2"
     inkscape:window-width="640"
     inkscape:window-height="480"
     id="namedview4"
     showgrid="false"
     inkscape:zoom="0.47837837"
     inkscape:cx="329.33334"
     inkscape:cy="246.66667"
     inkscape:window-x="0"
     inkscape:window-y="0"
     inkscape:window-maximized="0"
     inkscape:current-layer="g10" /><g
     id="g10"
     inkscape:groupmode="layer"
     inkscape:label="ink_ext_XXXXXX"
     transform="matrix(1.3333333,0,0,-1.3333333,0,493.33333)"><g
       id="g12"
       transform="scale(0.1)"><path
         d="M 4890,2187.5 C 4890,2996.1 3807.63,3650 2470,3650 1132.37,3650 50,2996.1 50,2187.5 50,1498.43 844.051,918.355 1909.91,767.191 1822.46,507.02 1678.32,201.164 1451.42,50 c 437.2,0 869.7,358.598 1165.09,678.527 C 3885.6,774.211 4890,1410.55 4890,2187.5 Z"
         style="fill:#ffffff;fill-opacity:1;fill-rule:nonzero;stroke:none"
         id="path14"
         inkscape:connector-curvature="0" /><path
         d="M 4890,2187.5 C 4890,2996.1 3807.63,3650 2470,3650 1132.37,3650 50,2996.1 50,2187.5 50,1498.43 844.051,918.355 1909.91,767.191 1822.46,507.02 1678.32,201.164 1451.42,50 c 437.2,0 869.7,358.598 1165.09,678.527 C 3885.61,774.211 4890,1410.55 4890,2187.5 Z"
         style="fill:none;stroke:#000000;stroke-width:100;stroke-linecap:round;stroke-linejoin:round;stroke-miterlimit:10;stroke-dasharray:none;stroke-opacity:1"
         id="path16"
         inkscape:connector-curvature="0" /><g
         id="g18"
         transform="scale(10)"><text
           transform="matrix(1,0,0,-1,67.6422,255)"
           style="font-variant:normal;font-weight:bold;font-size:50px;font-family:'Lucida Grande';-inkscape-font-specification:LucidaGrande-Bold;writing-mode:lr-tb;fill:#000000;fill-opacity:1;fill-rule:nonzero;stroke:none"
           id="text26"><tspan
             x="0 45.19043 78.027344 107.42188 127.68555 144.16504 173.55957 196.28906 225.58594 242.06543 271.21542 303.14902 335.98593 358.71542"
             y="0"
             sodipodi:role="line"
             id="tspan20">What are your </tspan><tspan
             x="45.3004 66.027939 95.324814 111.58458 127.84435 159.77794 202.91759 231.18907 264.026 280.28577 313.41565"
             y="59"
             sodipodi:role="line"
             id="tspan22">fellowship </tspan><tspan
             x="84.558197 117.68808 133.94785 163.34238 196.17929 224.45078 249.30429"
             y="118"
             sodipodi:role="line"
             id="tspan24">plans??</tspan></text>
</g></g></g></svg>