<?xml version="1.0" encoding="UTF-8" standalone="no"?>
<!-- Created with Inkscape (http://www.inkscape.org/) -->

<svg
   xmlns:dc="http://purl.org/dc/elements/1.1/"
   xmlns:cc="http://creativecommons.org/ns#"
   xmlns:rdf="http://www.w3.org/1999/02/22-rdf-syntax-ns#"
   xmlns:svg="http://www.w3.org/2000/svg"
   xmlns="http://www.w3.org/2000/svg"
   xmlns:sodipodi="http://sodipodi.sourceforge.net/DTD/sodipodi-0.dtd"
   xmlns:inkscape="http://www.inkscape.org/namespaces/inkscape"
   id="svg2"
   version="1.1"
   inkscape:version="0.91 r13725"
   xml:space="preserve"
   width="3226.25"
   height="1912.5"
   viewBox="0 0 3226.25 1912.5"
   sodipodi:docname="laptop_background.svg"><metadata
     id="metadata8"><rdf:RDF><cc:Work
         rdf:about=""><dc:format>image/svg+xml</dc:format><dc:type
           rdf:resource="http://purl.org/dc/dcmitype/StillImage" /><dc:title></dc:title></cc:Work></rdf:RDF></metadata><defs
     id="defs6" /><sodipodi:namedview
     pagecolor="#ffffff"
     bordercolor="#666666"
     borderopacity="1"
     objecttolerance="10"
     gridtolerance="10"
     guidetolerance="10"
     inkscape:pageopacity="0"
     inkscape:pageshadow="2"
     inkscape:window-width="700"
     inkscape:window-height="480"
     id="namedview4"
     showgrid="false"
     inkscape:zoom="0.099496319"
     inkscape:cx="2165.9093"
     inkscape:cy="152.20016"
     inkscape:window-x="20"
     inkscape:window-y="88"
     inkscape:window-maximized="0"
     inkscape:current-layer="g10" /><g
     id="g10"
     inkscape:groupmode="layer"
     inkscape:label="ink_ext_XXXXXX"
     transform="matrix(1.25,0,0,-1.25,0,1912.5)"><g
       id="g12"
       transform="scale(0.175937,0.175937)"
       style="opacity:0.1"><path
         d="m 0,0 14670,0 0,8696.28 -14670,0 L 0,0 Z"
         style="fill:#ffffff;fill-opacity:1;fill-rule:nonzero;stroke:none"
         id="path14"
         inkscape:connector-curvature="0" /><path
         d="m 0,0 32766,0 0,31806.9 -32766,0 L 0,0 Z"
         style="fill:#ffffff;fill-opacity:1;fill-rule:nonzero;stroke:none"
         id="path16"
         inkscape:connector-curvature="0" /><path
         d="m 13374.9,2279.14 -1429,825.26 c -15.2,8.78 -29,9.59 -38.9,3.81 l -25.4,-14.75 0.1,0.05 c -9.9,-5.68 -16,-17.84 -16.1,-35.15 l -3.4,-1218.54 c -0.1,-34.43 23.9,-76.3 53.8,-93.99 -30.4,16.49 -77.9,16.21 -107.4,-0.92 l -1053.5,-612.26 c -15,-8.69 -22.4,-20.07 -22.4,-31.47 l 0,0.12 -0.1,-29.36 c 0,-11.51 7.6,-23.03 22.8,-31.81 l 1428.9,-825.271 c 30.3,-17.449 79.1,-17.449 109.1,-0.004 L 13347,827.113 c 14.9,8.672 22.3,20.012 22.4,31.375 l 0.1,29.356 c 0,-0.336 -0.1,-0.66 -0.1,-0.989 0.5,11.438 -6.6,22.973 -21.2,31.887 14.6,-7.691 27.8,-7.902 37.3,-1.902 -0.3,-0.18 -0.6,-0.371 -0.9,-0.535 l 25.4,14.75 c 9.8,5.707 15.9,17.84 16,35.078 l 3.4,1218.537 c 0.1,34.74 -24.3,77.02 -54.5,94.47 z"
         style="fill:#77757e;fill-opacity:1;fill-rule:nonzero;stroke:none"
         id="path18"
         inkscape:connector-curvature="0" /><path
         d="m 11881.6,3093.46 25.4,14.75 c 9.9,5.78 23.7,4.97 38.9,-3.82 l -25.4,-14.75 c -15.2,8.79 -28.9,9.6 -38.9,3.82 z"
         style="fill:#acabb1;fill-opacity:1;fill-rule:nonzero;stroke:none"
         id="path20"
         inkscape:connector-curvature="0" /><path
         d="m 13410,931.047 -25.4,-14.75 c 9.8,5.707 15.9,17.844 16,35.082 l 25.4,14.742 c -0.1,-17.23 -6.2,-29.367 -16,-35.074 z"
         style="fill:#56555b;fill-opacity:1;fill-rule:nonzero;stroke:none"
         id="path22"
         inkscape:connector-curvature="0" /><path
         d="m 13404,2169.92 25.4,14.75 -3.4,-1218.537 -25.4,-14.75 3.4,1218.537 z"
         style="fill:#77757e;fill-opacity:1;fill-rule:nonzero;stroke:none"
         id="path24"
         inkscape:connector-curvature="0" /><path
         d="m 11920.5,3089.64 25.4,14.76 1429,-825.26 -25.4,-14.75 -1429,825.25 z"
         style="fill:#c6c5cb;fill-opacity:1;fill-rule:nonzero;stroke:none"
         id="path26"
         inkscape:connector-curvature="0" /><path
         d="m 13349.5,2264.39 25.4,14.75 c 30.2,-17.45 54.6,-59.73 54.5,-94.47 l -25.4,-14.75 c 0.1,34.73 -24.3,77.02 -54.5,94.47 z"
         style="fill:#acabb1;fill-opacity:1;fill-rule:nonzero;stroke:none"
         id="path28"
         inkscape:connector-curvature="0" /><path
         d="m 13349.5,2264.39 c 30.2,-17.45 54.6,-59.73 54.5,-94.47 l -3.4,-1218.537 c -0.1,-34.711 -24.7,-48.715 -54.9,-31.266 l -1429,825.263 c -30.2,17.44 -54.6,59.72 -54.5,94.44 l 3.4,1218.54 c 0.1,34.73 24.7,48.73 54.9,31.28 l 1429,-825.25 z"
         style="fill:#1a1a1c;fill-opacity:1;fill-rule:nonzero;stroke:none"
         id="path30"
         inkscape:connector-curvature="0" /><path
         d="m 10732.6,1071.94 0.1,29.36 c 0,-11.51 7.6,-23.03 22.8,-31.82 l -0.1,-29.35 c -15.2,8.78 -22.8,20.3 -22.8,31.81 z"
         style="fill:#c6c5cb;fill-opacity:1;fill-rule:nonzero;stroke:none"
         id="path32"
         inkscape:connector-curvature="0" /><path
         d="m 13369.5,887.84 -0.1,-29.36 c 0,-11.359 -7.5,-22.707 -22.4,-31.375 l 0.1,29.36 c 14.9,8.672 22.3,20.019 22.4,31.375 z"
         style="fill:#56555b;fill-opacity:1;fill-rule:nonzero;stroke:none"
         id="path34"
         inkscape:connector-curvature="0" /><path
         d="m 13347.1,856.465 -0.1,-29.36 -1053.6,-612.257 0.1,29.359 1053.6,612.258 z"
         style="fill:#77757e;fill-opacity:1;fill-rule:nonzero;stroke:none"
         id="path36"
         inkscape:connector-curvature="0" /><path
         d="m 12184.4,244.211 -0.1,-29.352 -1428.9,825.261 0.1,29.36 1428.9,-825.269 z"
         style="fill:#898890;fill-opacity:1;fill-rule:nonzero;stroke:none"
         id="path38"
         inkscape:connector-curvature="0" /><path
         d="m 12293.5,244.207 -0.1,-29.359 c -30,-17.442 -78.8,-17.442 -109.1,0.007 l 0.1,29.356 c 30.3,-17.449 79.1,-17.449 109.1,-0.004 z"
         style="fill:#56555b;fill-opacity:1;fill-rule:nonzero;stroke:none"
         id="path40"
         inkscape:connector-curvature="0" /><path
         d="m 13346.7,919.652 c 30.2,-17.457 30.4,-45.738 0.4,-63.187 L 12293.5,244.207 c -30,-17.445 -78.8,-17.445 -109.1,0.004 l -1428.9,825.269 c -30.3,17.45 -30.4,45.73 -0.4,63.17 l 1053.5,612.27 c 30.1,17.45 78.9,17.45 109.1,0 l 1429,-825.268 z"
         style="fill:#acabb1;fill-opacity:1;fill-rule:nonzero;stroke:none"
         id="path42"
         inkscape:connector-curvature="0" /><path
         d="m 13244.1,905.586 -1344.4,776.134 c -22,12.74 -57.7,12.74 -79.6,0 l -568,-330.09 c -22,-12.74 -21.9,-33.4 0.2,-46.15 l 1344.3,-776.144 c 22.1,-12.738 57.8,-12.738 79.7,0 l 568,330.094 c 21.9,12.746 21.8,33.41 -0.2,46.156"
         style="fill:#898890;fill-opacity:1;fill-rule:nonzero;stroke:none"
         id="path44"
         inkscape:connector-curvature="0" /><path
         d="m 12039.8,797.859 -411.9,237.811 c -15,8.65 -39.2,8.67 -54.2,0 l -293.3,-170.498 c -15,-8.672 -14.9,-22.723 0.1,-31.367 l 411.9,-237.813 c 15,-8.676 39.2,-8.648 54.2,0.02 l 293.3,170.5 c 15,8.668 14.9,22.679 -0.1,31.347"
         style="fill:#c6c5cb;fill-opacity:1;fill-rule:nonzero;stroke:none"
         id="path46"
         inkscape:connector-curvature="0" /><path
         d="m 13047.2,987.414 -12.6,-7.344 0,14.61 -116.5,67.27 -12.6,-7.34 0,14.6 -116.5,67.26 -115.7,-67.27 -0.1,-10.94 -9.4,5.45 -115.7,-67.269 -0.1,-28.921 116.5,-67.266 12.6,7.336 0,-14.602 116.5,-67.269 12.6,7.34 0,-14.61 116.5,-67.261 115.7,67.257 0.1,10.946 9.4,-5.446 115.7,67.27 0.1,28.93 -116.5,67.269 z"
         style="fill:#3e3c43;fill-opacity:1;fill-rule:nonzero;stroke:none"
         id="path48"
         inkscape:connector-curvature="0" /><path
         d="m 12724.8,785.758 0.1,28.926 -116.5,67.265 -115.8,-67.265 0,-14.461 -12.5,7.191 -12.6,-7.332 0,14.594 -116.5,67.262 -115.7,-67.266 -0.1,-28.926 116.5,-67.262 12.6,7.332 0,-14.597 116.5,-67.27 12.6,7.34 0,-14.601 116.5,-67.27 115.8,67.27 0,28.925 -104.1,60.145 103.2,60 z m -128.1,-60.153 -0.1,-0.074 0,0.137 0.1,-0.063 z"
         style="fill:#3e3c43;fill-opacity:1;fill-rule:nonzero;stroke:none"
         id="path50"
         inkscape:connector-curvature="0" /><path
         d="m 11898.7,1502.07 -0.1,-14.6 116.5,-67.26 12.7,7.34 -0.1,-14.6 116.5,-67.28 12.7,7.35 -0.1,-14.61 116.5,-67.27 12.7,7.34 -0.1,-14.6 116.5,-67.27 12.6,7.34 0,-14.6 116.5,-67.27 115.8,67.27 0.1,28.92 -116.6,67.27 -12.6,-7.33 0.1,14.6 -116.5,67.26 -12.7,-7.33 0.1,14.59 -116.5,67.28 -12.7,-7.34 0.1,14.6 -116.5,67.27 -12.7,-7.34 0.1,14.61 -116.5,67.26 -12.7,-7.33 0.1,14.6 -116.5,67.26 -115.8,-67.26 -0.1,-28.94 116.5,-67.26 12.7,7.33 z"
         style="fill:#3e3c43;fill-opacity:1;fill-rule:nonzero;stroke:none"
         id="path52"
         inkscape:connector-curvature="0" /><path
         d="m 12337.5,1009.36 0.1,14.45 12.4,-7.19 115.8,67.26 0.1,28.92 -116.5,67.27 -12.7,-7.33 0.1,14.6 -116.5,67.26 -12.7,-7.33 0.1,14.59 -116.5,67.27 -12.7,-7.34 0.1,14.61 -116.5,67.26 -12.7,-7.33 0.1,14.6 -116.5,67.26 -12.7,-7.33 0.1,14.6 -116.5,67.26 -115.8,-67.26 0,-14.46 -12.5,7.2 -115.7,-67.27 -0.1,-14.45 -12.4,7.18 -115.8,-67.26 -0.1,-28.93 116.5,-67.27 12.7,7.34 -0.1,-14.6 503.8,-290.862 12.6,7.336 0,-14.598 116.5,-67.269 115.8,67.269 0,14.454 12.5,-7.192 115.7,67.282 z"
         style="fill:#3e3c43;fill-opacity:1;fill-rule:nonzero;stroke:none"
         id="path54"
         inkscape:connector-curvature="0" /><path
         d="m 12905.5,1069.21 0,-28.92 -115.8,-67.274 0.1,28.924 115.7,67.27 z"
         style="fill:#1a1a1c;fill-opacity:1;fill-rule:nonzero;stroke:none"
         id="path56"
         inkscape:connector-curvature="0" /><path
         d="m 12789.8,1001.94 -0.1,-28.924 -116.5,67.264 0.1,28.92 116.5,-67.26 z"
         style="fill:#2c2b2e;fill-opacity:1;fill-rule:nonzero;stroke:none"
         id="path58"
         inkscape:connector-curvature="0" /><path
         d="m 12673.3,1069.2 115.7,67.27 116.5,-67.26 -115.7,-67.27 -116.5,67.26 z"
         style="fill:#3e3c43;fill-opacity:1;fill-rule:nonzero;stroke:none"
         id="path60"
         inkscape:connector-curvature="0" /><path
         d="m 13034.6,994.68 0,-28.926 -115.8,-67.27 0.1,28.922 115.7,67.274 z"
         style="fill:#1a1a1c;fill-opacity:1;fill-rule:nonzero;stroke:none"
         id="path62"
         inkscape:connector-curvature="0" /><path
         d="m 12918.9,927.406 -0.1,-28.922 -116.5,67.27 0.1,28.926 116.5,-67.274 z"
         style="fill:#2c2b2e;fill-opacity:1;fill-rule:nonzero;stroke:none"
         id="path64"
         inkscape:connector-curvature="0" /><path
         d="m 12802.4,994.68 115.7,67.27 116.5,-67.27 -115.7,-67.274 -116.5,67.274 z"
         style="fill:#3e3c43;fill-opacity:1;fill-rule:nonzero;stroke:none"
         id="path66"
         inkscape:connector-curvature="0" /><path
         d="m 13163.7,920.145 -0.1,-28.93 -115.7,-67.27 0.1,28.926 115.7,67.274 z"
         style="fill:#1a1a1c;fill-opacity:1;fill-rule:nonzero;stroke:none"
         id="path68"
         inkscape:connector-curvature="0" /><path
         d="m 13048,852.871 -0.1,-28.926 -116.5,67.27 0.1,28.93 116.5,-67.274 z"
         style="fill:#2c2b2e;fill-opacity:1;fill-rule:nonzero;stroke:none"
         id="path70"
         inkscape:connector-curvature="0" /><path
         d="m 13047.2,987.414 116.5,-67.269 -115.7,-67.274 -116.5,67.274 115.7,67.269 z"
         style="fill:#3e3c43;fill-opacity:1;fill-rule:nonzero;stroke:none"
         id="path72"
         inkscape:connector-curvature="0" /><path
         d="m 12780.3,996.441 -0.1,-28.921 -115.7,-67.266 0.1,28.926 115.7,67.261 z"
         style="fill:#1a1a1c;fill-opacity:1;fill-rule:nonzero;stroke:none"
         id="path74"
         inkscape:connector-curvature="0" /><path
         d="m 12664.6,929.18 -0.1,-28.926 -116.5,67.266 0.1,28.921 116.5,-67.261 z"
         style="fill:#2c2b2e;fill-opacity:1;fill-rule:nonzero;stroke:none"
         id="path76"
         inkscape:connector-curvature="0" /><path
         d="m 12548.1,996.441 115.7,67.269 116.5,-67.269 -115.7,-67.261 -116.5,67.261 z"
         style="fill:#3e3c43;fill-opacity:1;fill-rule:nonzero;stroke:none"
         id="path78"
         inkscape:connector-curvature="0" /><path
         d="m 12909.4,921.906 -0.1,-28.922 -115.7,-67.265 0.1,28.926 115.7,67.261 z"
         style="fill:#1a1a1c;fill-opacity:1;fill-rule:nonzero;stroke:none"
         id="path80"
         inkscape:connector-curvature="0" /><path
         d="m 12793.7,854.645 -0.1,-28.926 -116.5,67.269 0.1,28.926 116.5,-67.269 z"
         style="fill:#2c2b2e;fill-opacity:1;fill-rule:nonzero;stroke:none"
         id="path82"
         inkscape:connector-curvature="0" /><path
         d="m 12677.2,921.914 115.7,67.262 116.5,-67.27 -115.7,-67.261 -116.5,67.269 z"
         style="fill:#3e3c43;fill-opacity:1;fill-rule:nonzero;stroke:none"
         id="path84"
         inkscape:connector-curvature="0" /><path
         d="m 13038.5,847.375 -0.1,-28.93 -115.7,-67.257 0.1,28.921 115.7,67.266 z"
         style="fill:#1a1a1c;fill-opacity:1;fill-rule:nonzero;stroke:none"
         id="path86"
         inkscape:connector-curvature="0" /><path
         d="m 12922.8,780.109 -0.1,-28.921 -116.5,67.269 0.1,28.926 116.5,-67.274 z"
         style="fill:#2c2b2e;fill-opacity:1;fill-rule:nonzero;stroke:none"
         id="path88"
         inkscape:connector-curvature="0" /><path
         d="m 12806.3,847.383 115.7,67.254 116.5,-67.262 -115.7,-67.266 -116.5,67.274 z"
         style="fill:#3e3c43;fill-opacity:1;fill-rule:nonzero;stroke:none"
         id="path90"
         inkscape:connector-curvature="0" /><path
         d="m 12724.9,814.684 -0.1,-28.926 -115.7,-67.27 0,28.922 115.8,67.274 z"
         style="fill:#1a1a1c;fill-opacity:1;fill-rule:nonzero;stroke:none"
         id="path92"
         inkscape:connector-curvature="0" /><path
         d="m 12609.1,747.41 0,-28.922 -116.6,67.262 0.1,28.934 116.5,-67.274 z"
         style="fill:#2c2b2e;fill-opacity:1;fill-rule:nonzero;stroke:none"
         id="path94"
         inkscape:connector-curvature="0" /><path
         d="m 12492.6,814.684 115.8,67.265 116.5,-67.265 -115.8,-67.274 -116.5,67.274 z"
         style="fill:#3e3c43;fill-opacity:1;fill-rule:nonzero;stroke:none"
         id="path96"
         inkscape:connector-curvature="0" /><path
         d="m 12467.5,814.684 0,-28.934 -115.8,-67.266 0.1,28.926 115.7,67.274 z"
         style="fill:#1a1a1c;fill-opacity:1;fill-rule:nonzero;stroke:none"
         id="path98"
         inkscape:connector-curvature="0" /><path
         d="m 12351.8,747.41 -0.1,-28.926 -116.5,67.262 0.1,28.918 116.5,-67.254 z"
         style="fill:#2c2b2e;fill-opacity:1;fill-rule:nonzero;stroke:none"
         id="path100"
         inkscape:connector-curvature="0" /><path
         d="m 12235.3,814.664 115.7,67.274 116.5,-67.254 -115.7,-67.274 -116.5,67.254 z"
         style="fill:#3e3c43;fill-opacity:1;fill-rule:nonzero;stroke:none"
         id="path102"
         inkscape:connector-curvature="0" /><path
         d="m 12596.6,740.145 0,-28.926 -115.8,-67.274 0.1,28.93 115.7,67.27 z"
         style="fill:#1a1a1c;fill-opacity:1;fill-rule:nonzero;stroke:none"
         id="path104"
         inkscape:connector-curvature="0" /><path
         d="m 12480.9,672.875 -0.1,-28.93 -116.5,67.274 0.1,28.922 116.5,-67.266 z"
         style="fill:#2c2b2e;fill-opacity:1;fill-rule:nonzero;stroke:none"
         id="path106"
         inkscape:connector-curvature="0" /><path
         d="m 12364.4,740.141 115.7,67.273 116.5,-67.269 -115.7,-67.27 -116.5,67.266 z"
         style="fill:#3e3c43;fill-opacity:1;fill-rule:nonzero;stroke:none"
         id="path108"
         inkscape:connector-curvature="0" /><path
         d="m 12725.7,665.605 0,-28.925 -115.8,-67.266 0.1,28.926 115.7,67.265 z"
         style="fill:#1a1a1c;fill-opacity:1;fill-rule:nonzero;stroke:none"
         id="path110"
         inkscape:connector-curvature="0" /><path
         d="m 12610,598.34 -0.1,-28.926 -116.5,67.266 0.1,28.925 116.5,-67.265 z"
         style="fill:#2c2b2e;fill-opacity:1;fill-rule:nonzero;stroke:none"
         id="path112"
         inkscape:connector-curvature="0" /><path
         d="m 12493.5,665.605 115.7,67.27 116.5,-67.27 -115.7,-67.265 -116.5,67.265 z"
         style="fill:#3e3c43;fill-opacity:1;fill-rule:nonzero;stroke:none"
         id="path114"
         inkscape:connector-curvature="0" /><path
         d="m 12001.9,1590.94 -0.1,-28.94 -115.8,-67.26 0.1,28.93 115.8,67.27 z"
         style="fill:#1a1a1c;fill-opacity:1;fill-rule:nonzero;stroke:none"
         id="path116"
         inkscape:connector-curvature="0" /><path
         d="m 11886.1,1523.67 -0.1,-28.93 -116.5,67.26 0.1,28.94 116.5,-67.27 z"
         style="fill:#2c2b2e;fill-opacity:1;fill-rule:nonzero;stroke:none"
         id="path118"
         inkscape:connector-curvature="0" /><path
         d="m 11769.6,1590.94 115.8,67.26 116.5,-67.26 -115.8,-67.27 -116.5,67.27 z"
         style="fill:#3e3c43;fill-opacity:1;fill-rule:nonzero;stroke:none"
         id="path120"
         inkscape:connector-curvature="0" /><path
         d="m 12131,1516.41 -0.1,-28.93 -115.8,-67.27 0.1,28.93 115.8,67.27 z"
         style="fill:#1a1a1c;fill-opacity:1;fill-rule:nonzero;stroke:none"
         id="path122"
         inkscape:connector-curvature="0" /><path
         d="m 12015.2,1449.14 -0.1,-28.93 -116.5,67.26 0.1,28.93 116.5,-67.26 z"
         style="fill:#2c2b2e;fill-opacity:1;fill-rule:nonzero;stroke:none"
         id="path124"
         inkscape:connector-curvature="0" /><path
         d="m 12131,1516.41 -115.8,-67.27 -116.5,67.26 115.8,67.27 116.5,-67.26 z"
         style="fill:#3e3c43;fill-opacity:1;fill-rule:nonzero;stroke:none"
         id="path126"
         inkscape:connector-curvature="0" /><path
         d="m 12260.1,1441.87 -0.1,-28.92 -115.8,-67.28 0.1,28.93 115.8,67.27 z"
         style="fill:#1a1a1c;fill-opacity:1;fill-rule:nonzero;stroke:none"
         id="path128"
         inkscape:connector-curvature="0" /><path
         d="m 12144.3,1374.6 -0.1,-28.93 -116.5,67.28 0.1,28.92 116.5,-67.27 z"
         style="fill:#2c2b2e;fill-opacity:1;fill-rule:nonzero;stroke:none"
         id="path130"
         inkscape:connector-curvature="0" /><path
         d="m 12260.1,1441.87 -115.8,-67.27 -116.5,67.27 115.8,67.27 116.5,-67.27 z"
         style="fill:#3e3c43;fill-opacity:1;fill-rule:nonzero;stroke:none"
         id="path132"
         inkscape:connector-curvature="0" /><path
         d="m 12389.2,1367.33 -0.1,-28.92 -115.8,-67.27 0.1,28.93 115.8,67.26 z"
         style="fill:#1a1a1c;fill-opacity:1;fill-rule:nonzero;stroke:none"
         id="path134"
         inkscape:connector-curvature="0" /><path
         d="m 12273.4,1300.07 -0.1,-28.93 -116.5,67.27 0.1,28.92 116.5,-67.26 z"
         style="fill:#2c2b2e;fill-opacity:1;fill-rule:nonzero;stroke:none"
         id="path136"
         inkscape:connector-curvature="0" /><path
         d="m 12389.2,1367.33 -115.8,-67.26 -116.5,67.26 115.8,67.28 116.5,-67.28 z"
         style="fill:#3e3c43;fill-opacity:1;fill-rule:nonzero;stroke:none"
         id="path138"
         inkscape:connector-curvature="0" /><path
         d="m 12518.3,1292.81 -0.1,-28.93 -115.8,-67.27 0.1,28.93 115.8,67.27 z"
         style="fill:#1a1a1c;fill-opacity:1;fill-rule:nonzero;stroke:none"
         id="path140"
         inkscape:connector-curvature="0" /><path
         d="m 12402.5,1225.54 -0.1,-28.93 -116.5,67.27 0.1,28.92 116.5,-67.26 z"
         style="fill:#2c2b2e;fill-opacity:1;fill-rule:nonzero;stroke:none"
         id="path142"
         inkscape:connector-curvature="0" /><path
         d="m 12286,1292.8 115.8,67.27 116.5,-67.26 -115.8,-67.27 -116.5,67.26 z"
         style="fill:#3e3c43;fill-opacity:1;fill-rule:nonzero;stroke:none"
         id="path144"
         inkscape:connector-curvature="0" /><path
         d="m 12647.4,1218.27 -0.1,-28.92 -115.8,-67.27 0.1,28.92 115.8,67.27 z"
         style="fill:#1a1a1c;fill-opacity:1;fill-rule:nonzero;stroke:none"
         id="path146"
         inkscape:connector-curvature="0" /><path
         d="m 12531.6,1151 -0.1,-28.92 -116.5,67.27 0.1,28.92 116.5,-67.27 z"
         style="fill:#2c2b2e;fill-opacity:1;fill-rule:nonzero;stroke:none"
         id="path148"
         inkscape:connector-curvature="0" /><path
         d="m 12415.1,1218.27 115.7,67.27 116.6,-67.27 -115.8,-67.27 -116.5,67.27 z"
         style="fill:#3e3c43;fill-opacity:1;fill-rule:nonzero;stroke:none"
         id="path150"
         inkscape:connector-curvature="0" /><path
         d="m 11820.4,1485.47 -0.1,-28.93 -115.7,-67.26 0.1,28.92 115.7,67.27 z"
         style="fill:#1a1a1c;fill-opacity:1;fill-rule:nonzero;stroke:none"
         id="path152"
         inkscape:connector-curvature="0" /><path
         d="m 11704.7,1418.2 -0.1,-28.92 -116.5,67.27 0,28.92 116.6,-67.27 z"
         style="fill:#2c2b2e;fill-opacity:1;fill-rule:nonzero;stroke:none"
         id="path154"
         inkscape:connector-curvature="0" /><path
         d="m 11588.1,1485.47 115.8,67.26 116.5,-67.26 -115.7,-67.27 -116.6,67.27 z"
         style="fill:#3e3c43;fill-opacity:1;fill-rule:nonzero;stroke:none"
         id="path156"
         inkscape:connector-curvature="0" /><path
         d="m 11949.5,1410.94 -0.1,-28.93 -115.7,-67.26 0,28.92 115.8,67.27 z"
         style="fill:#1a1a1c;fill-opacity:1;fill-rule:nonzero;stroke:none"
         id="path158"
         inkscape:connector-curvature="0" /><path
         d="m 11833.7,1343.67 0,-28.92 -116.5,67.27 0,28.92 116.5,-67.27 z"
         style="fill:#2c2b2e;fill-opacity:1;fill-rule:nonzero;stroke:none"
         id="path160"
         inkscape:connector-curvature="0" /><path
         d="m 11949.5,1410.94 -115.8,-67.27 -116.5,67.27 115.8,67.26 116.5,-67.26 z"
         style="fill:#3e3c43;fill-opacity:1;fill-rule:nonzero;stroke:none"
         id="path162"
         inkscape:connector-curvature="0" /><path
         d="m 12078.6,1336.4 -0.1,-28.92 -115.7,-67.27 0,28.93 115.8,67.26 z"
         style="fill:#1a1a1c;fill-opacity:1;fill-rule:nonzero;stroke:none"
         id="path164"
         inkscape:connector-curvature="0" /><path
         d="m 11962.8,1269.14 0,-28.93 -116.6,67.28 0.1,28.92 116.5,-67.27 z"
         style="fill:#2c2b2e;fill-opacity:1;fill-rule:nonzero;stroke:none"
         id="path166"
         inkscape:connector-curvature="0" /><path
         d="m 12078.6,1336.4 -115.8,-67.26 -116.5,67.27 115.8,67.26 116.5,-67.27 z"
         style="fill:#3e3c43;fill-opacity:1;fill-rule:nonzero;stroke:none"
         id="path168"
         inkscape:connector-curvature="0" /><path
         d="m 12207.7,1261.86 -0.1,-28.92 -115.8,-67.26 0.1,28.93 115.8,67.25 z"
         style="fill:#1a1a1c;fill-opacity:1;fill-rule:nonzero;stroke:none"
         id="path170"
         inkscape:connector-curvature="0" /><path
         d="m 12091.9,1194.61 -0.1,-28.93 -116.5,67.27 0.1,28.92 116.5,-67.26 z"
         style="fill:#2c2b2e;fill-opacity:1;fill-rule:nonzero;stroke:none"
         id="path172"
         inkscape:connector-curvature="0" /><path
         d="m 12207.7,1261.86 -115.8,-67.25 -116.5,67.26 115.8,67.26 116.5,-67.27 z"
         style="fill:#3e3c43;fill-opacity:1;fill-rule:nonzero;stroke:none"
         id="path174"
         inkscape:connector-curvature="0" /><path
         d="m 12336.8,1187.34 -0.1,-28.93 -115.8,-67.26 0.1,28.93 115.8,67.26 z"
         style="fill:#1a1a1c;fill-opacity:1;fill-rule:nonzero;stroke:none"
         id="path176"
         inkscape:connector-curvature="0" /><path
         d="m 12221,1120.08 -0.1,-28.93 -116.5,67.26 0.1,28.93 116.5,-67.26 z"
         style="fill:#2c2b2e;fill-opacity:1;fill-rule:nonzero;stroke:none"
         id="path178"
         inkscape:connector-curvature="0" /><path
         d="m 12104.5,1187.34 115.8,67.26 116.5,-67.26 -115.8,-67.26 -116.5,67.26 z"
         style="fill:#3e3c43;fill-opacity:1;fill-rule:nonzero;stroke:none"
         id="path180"
         inkscape:connector-curvature="0" /><path
         d="m 12465.9,1112.8 -0.1,-28.92 -115.8,-67.26 0.1,28.92 115.8,67.26 z"
         style="fill:#1a1a1c;fill-opacity:1;fill-rule:nonzero;stroke:none"
         id="path182"
         inkscape:connector-curvature="0" /><path
         d="m 12350.1,1045.54 -0.1,-28.92 -116.5,67.27 0.1,28.93 116.5,-67.28 z"
         style="fill:#2c2b2e;fill-opacity:1;fill-rule:nonzero;stroke:none"
         id="path184"
         inkscape:connector-curvature="0" /><path
         d="m 12233.6,1112.82 115.7,67.25 116.6,-67.27 -115.8,-67.26 -116.5,67.28 z"
         style="fill:#3e3c43;fill-opacity:1;fill-rule:nonzero;stroke:none"
         id="path186"
         inkscape:connector-curvature="0" /><path
         d="m 11692.1,1410.93 0,-28.92 -115.8,-67.27 0.1,28.92 115.7,67.27 z"
         style="fill:#1a1a1c;fill-opacity:1;fill-rule:nonzero;stroke:none"
         id="path188"
         inkscape:connector-curvature="0" /><path
         d="m 11576.4,1343.66 -0.1,-28.92 -116.5,67.27 0.1,28.92 116.5,-67.27 z"
         style="fill:#2c2b2e;fill-opacity:1;fill-rule:nonzero;stroke:none"
         id="path190"
         inkscape:connector-curvature="0" /><path
         d="m 11459.9,1410.93 115.7,67.27 116.5,-67.27 -115.7,-67.27 -116.5,67.27 z"
         style="fill:#3e3c43;fill-opacity:1;fill-rule:nonzero;stroke:none"
         id="path192"
         inkscape:connector-curvature="0" /><path
         d="m 11821.2,1336.4 0,-28.92 -115.8,-67.27 0.1,28.92 115.7,67.27 z"
         style="fill:#1a1a1c;fill-opacity:1;fill-rule:nonzero;stroke:none"
         id="path194"
         inkscape:connector-curvature="0" /><path
         d="m 11705.5,1269.13 -0.1,-28.92 -116.5,67.27 0.1,28.92 116.5,-67.27 z"
         style="fill:#2c2b2e;fill-opacity:1;fill-rule:nonzero;stroke:none"
         id="path196"
         inkscape:connector-curvature="0" /><path
         d="m 11821.2,1336.4 -115.7,-67.27 -116.5,67.27 115.7,67.27 116.5,-67.27 z"
         style="fill:#3e3c43;fill-opacity:1;fill-rule:nonzero;stroke:none"
         id="path198"
         inkscape:connector-curvature="0" /><path
         d="m 11950.3,1261.87 -0.1,-28.92 -115.7,-67.27 0.1,28.92 115.7,67.27 z"
         style="fill:#1a1a1c;fill-opacity:1;fill-rule:nonzero;stroke:none"
         id="path200"
         inkscape:connector-curvature="0" /><path
         d="m 11834.6,1194.6 -0.1,-28.92 -116.5,67.27 0.1,28.92 116.5,-67.27 z"
         style="fill:#2c2b2e;fill-opacity:1;fill-rule:nonzero;stroke:none"
         id="path202"
         inkscape:connector-curvature="0" /><path
         d="m 11950.3,1261.87 -115.7,-67.27 -116.5,67.27 115.7,67.27 116.5,-67.27 z"
         style="fill:#3e3c43;fill-opacity:1;fill-rule:nonzero;stroke:none"
         id="path204"
         inkscape:connector-curvature="0" /><path
         d="m 12079.4,1187.34 0,-28.93 -115.8,-67.27 0.1,28.92 115.7,67.28 z"
         style="fill:#1a1a1c;fill-opacity:1;fill-rule:nonzero;stroke:none"
         id="path206"
         inkscape:connector-curvature="0" /><path
         d="m 11963.7,1120.06 -0.1,-28.92 -116.5,67.27 0.1,28.93 116.5,-67.28 z"
         style="fill:#2c2b2e;fill-opacity:1;fill-rule:nonzero;stroke:none"
         id="path208"
         inkscape:connector-curvature="0" /><path
         d="m 12079.4,1187.34 -115.7,-67.28 -116.5,67.28 115.7,67.27 116.5,-67.27 z"
         style="fill:#3e3c43;fill-opacity:1;fill-rule:nonzero;stroke:none"
         id="path210"
         inkscape:connector-curvature="0" /><path
         d="m 12208.5,1112.81 -0.1,-28.92 -115.7,-67.27 0.1,28.92 115.7,67.27 z"
         style="fill:#1a1a1c;fill-opacity:1;fill-rule:nonzero;stroke:none"
         id="path212"
         inkscape:connector-curvature="0" /><path
         d="m 12092.8,1045.54 -0.1,-28.92 -116.5,67.26 0.1,28.92 116.5,-67.26 z"
         style="fill:#2c2b2e;fill-opacity:1;fill-rule:nonzero;stroke:none"
         id="path214"
         inkscape:connector-curvature="0" /><path
         d="m 11976.3,1112.8 115.7,67.27 116.5,-67.26 -115.7,-67.27 -116.5,67.26 z"
         style="fill:#3e3c43;fill-opacity:1;fill-rule:nonzero;stroke:none"
         id="path216"
         inkscape:connector-curvature="0" /><path
         d="m 12337.6,1038.27 -0.1,-28.91 -115.7,-67.282 0.1,28.926 115.7,67.266 z"
         style="fill:#1a1a1c;fill-opacity:1;fill-rule:nonzero;stroke:none"
         id="path218"
         inkscape:connector-curvature="0" /><path
         d="m 12221.9,971.004 -0.1,-28.926 -116.5,67.282 0,28.91 116.6,-67.266 z"
         style="fill:#2c2b2e;fill-opacity:1;fill-rule:nonzero;stroke:none"
         id="path220"
         inkscape:connector-curvature="0" /><path
         d="m 12105.3,1038.27 115.8,67.28 116.5,-67.28 -115.7,-67.266 -116.6,67.266 z"
         style="fill:#3e3c43;fill-opacity:1;fill-rule:nonzero;stroke:none"
         id="path222"
         inkscape:connector-curvature="0" /><path
         d="m 11563.9,1336.4 -0.1,-28.92 -115.7,-67.28 0,28.93 115.8,67.27 z"
         style="fill:#1a1a1c;fill-opacity:1;fill-rule:nonzero;stroke:none"
         id="path224"
         inkscape:connector-curvature="0" /><path
         d="m 11448.1,1269.13 0,-28.93 -116.6,67.28 0.1,28.92 116.5,-67.27 z"
         style="fill:#2c2b2e;fill-opacity:1;fill-rule:nonzero;stroke:none"
         id="path226"
         inkscape:connector-curvature="0" /><path
         d="m 11331.6,1336.4 115.8,67.27 116.5,-67.27 -115.8,-67.27 -116.5,67.27 z"
         style="fill:#3e3c43;fill-opacity:1;fill-rule:nonzero;stroke:none"
         id="path228"
         inkscape:connector-curvature="0" /><path
         d="m 12080.3,1038.27 -0.1,-28.91 -115.8,-67.282 0.1,28.926 115.8,67.266 z"
         style="fill:#1a1a1c;fill-opacity:1;fill-rule:nonzero;stroke:none"
         id="path230"
         inkscape:connector-curvature="0" /><path
         d="m 11964.5,971.004 -0.1,-28.926 -503.8,290.862 0.1,28.92 503.8,-290.856 z"
         style="fill:#2c2b2e;fill-opacity:1;fill-rule:nonzero;stroke:none"
         id="path232"
         inkscape:connector-curvature="0" /><path
         d="m 11460.7,1261.86 115.8,67.27 503.8,-290.86 -115.8,-67.266 -503.8,290.856 z"
         style="fill:#3e3c43;fill-opacity:1;fill-rule:nonzero;stroke:none"
         id="path234"
         inkscape:connector-curvature="0" /><path
         d="m 12209.4,963.742 -0.1,-28.926 -115.8,-67.269 0.1,28.926 115.8,67.269 z"
         style="fill:#1a1a1c;fill-opacity:1;fill-rule:nonzero;stroke:none"
         id="path236"
         inkscape:connector-curvature="0" /><path
         d="m 12093.6,896.473 -0.1,-28.926 -116.5,67.262 0.1,28.933 116.5,-67.269 z"
         style="fill:#2c2b2e;fill-opacity:1;fill-rule:nonzero;stroke:none"
         id="path238"
         inkscape:connector-curvature="0" /><path
         d="m 11977.1,963.742 115.7,67.268 116.6,-67.268 -115.8,-67.269 -116.5,67.269 z"
         style="fill:#3e3c43;fill-opacity:1;fill-rule:nonzero;stroke:none"
         id="path240"
         inkscape:connector-curvature="0" /><path
         d="m 12401.8,1910.91 1.7,604.84 709.9,-409.9 -1.7,-604.84 -709.9,409.9 m 892.1,234.2 -1028.2,593.66 -3,-1039.58 -291.3,168.2 2.9,1039.57 -2.9,-1039.57 1319.6,-761.85 2.9,1039.57"
         style="fill:#56555b;fill-opacity:1;fill-rule:nonzero;stroke:none"
         id="path242"
         inkscape:connector-curvature="0" /><path
         d="m 12177.1,1936.35 -31.9,18.42 -0.1,-36.65 -31.9,18.41 -0.1,-36.65 63.8,-36.83 0.2,73.3 m -142.4,45.49 0.4,126.84 110.3,-63.73 -0.1,-63.43 55.2,-31.86 -0.4,-126.84 -110.4,63.73 0.2,63.42 -55.2,31.87 m -33.1,201.93 0.3,122.36 110.4,-63.75 -0.4,-122.35 -110.3,63.74 m 122.5,-70.72 0.3,122.36 110.4,-63.75 -0.3,-122.34 -110.4,63.73 m -122.2,206.98 0.4,122.35 110.4,-63.74 -0.4,-122.35 -110.4,63.74 m 122.5,-70.72 0.4,122.35 110.4,-63.75 -0.4,-122.35 -110.4,63.75 m -122.1,206.98 0.4,122.32 110.4,-63.75 -0.4,-122.32 -110.4,63.75 m 122.5,-70.74 0.4,122.33 110.4,-63.75 -0.4,-122.32 -110.4,63.74 m -122.1,206.99 0.4,122.33 110.4,-63.75 -0.4,-122.32 -110.4,63.74 m 122.5,-70.73 0.4,122.33 110.4,-63.75 -0.4,-122.32 -110.4,63.74 m -122.1,206.98 0.3,122.32 110.4,-63.74 -0.3,-122.32 -110.4,63.74 m 122.5,-70.72 0.3,122.32 110.4,-63.75 -0.3,-122.31 -110.4,63.74 m 140.1,80.7 -291.4,168.19 -2.9,-1039.57 291.3,-168.2 3,1039.58"
         style="fill:#77757e;fill-opacity:1;fill-rule:nonzero;stroke:none"
         id="path244"
         inkscape:connector-curvature="0" /><path
         d="m 12738.5,2109.56 0.1,19.51 38.8,-22.42 -0.1,-19.51 148.7,-85.84 c 1.2,8.78 8.3,11.96 16.9,7.03 9.4,-5.42 17,-18.56 16.9,-29.36 0,-1.18 -0.1,-2.28 -0.3,-3.31 l 43,-41.32 -30.1,3.25 -12.4,-27.5 -14.2,57.74 c -1,0.37 -2,0.84 -3,1.45 -8.6,4.93 -15.7,16.3 -16.8,26.44 l -126.3,72.89 c 72.9,-61.92 128.8,-164.76 138,-257.08 l 18.4,-10.63 -0.1,-44.61 -38.9,22.43 0.1,44.61 15.6,-8.99 c -10.1,98.49 -74.6,209.07 -155.5,266.01 l 0,-18.3 -38.9,22.42 0.1,18.3 c -81,36.53 -145.9,0.64 -156.5,-85.9 l 15.2,-8.76 -0.1,-44.61 -38.9,22.41 0.2,44.61 18.7,-10.84 c 9.7,81.42 66,119.51 139,97.24 l -138,79.67 c -1.2,-8.78 -8.3,-11.97 -16.9,-7.04 -9.4,5.43 -16.9,18.56 -16.9,29.34 0,10.8 7.6,15.14 17,9.72 8.6,-4.94 15.7,-16.29 16.8,-26.45 l 160.4,-92.6 m 374.9,-3.71 -709.9,409.89 -1.7,-604.84 709.9,-409.89 1.7,604.84"
         style="fill:#ffffff;fill-opacity:1;fill-rule:nonzero;stroke:none"
         id="path246"
         inkscape:connector-curvature="0" /><path
         d="m 12561.4,2228.6 c -9.4,5.42 -17.1,1.08 -17.1,-9.72 0,-10.77 7.5,-23.91 16.9,-29.33 8.6,-4.94 15.7,-1.75 16.9,7.03 l -16.8,9.7 0,5.59 16.8,-9.71 c -1.1,10.15 -8.2,21.51 -16.7,26.44"
         style="fill:#010101;fill-opacity:1;fill-rule:nonzero;stroke:none"
         id="path248"
         inkscape:connector-curvature="0" /><path
         d="m 12941.1,1987 -15.1,8.71 c 1.2,-10.14 8.2,-21.5 16.8,-26.44 1,-0.6 2,-1.07 3,-1.44 l -4.7,19.17 m 1.8,21.33 c -8.6,4.93 -15.7,1.75 -16.9,-7.03 l 13.5,-7.77 -0.5,1.87 4.2,-4.02 3.5,-1.99 -0.1,-1.32 13,-12.41 c 0.1,1.03 0.2,2.13 0.2,3.31 0.1,10.8 -7.5,23.93 -16.9,29.36"
         style="fill:#010101;fill-opacity:1;fill-rule:nonzero;stroke:none"
         id="path250"
         inkscape:connector-curvature="0" /><path
         d="m 12960.5,1925.86 -13.9,56.33 42,-40.33 -19.9,2.16 -8.2,-18.16 m -13.9,62.21 0,-4.27 -5.5,3.2 4.7,-19.17 14.2,-57.74 12.4,27.5 30.2,-3.26 -43,41.33 -13,12.41 m -7.6,7.34 0.5,-1.87 3.7,-2.15 -4.2,4.02"
         style="fill:#010101;fill-opacity:1;fill-rule:nonzero;stroke:none"
         id="path252"
         inkscape:connector-curvature="0" /><path
         d="m 12738.5,2109.56 -160.4,92.6 -16.8,9.7 0,-5.59 16.8,-9.7 138,-79.66 c 7.3,-2.23 14.8,-5.07 22.4,-8.53 l 0,1.18 m 208.1,-120.17 -3.4,1.99 -3.7,2.15 -13.5,7.77 -148.7,85.84 0,-1.18 c 7.6,-5.34 15.1,-11.14 22.4,-17.35 l 126.3,-72.9 15.1,-8.71 5.5,-3.2 0,4.27 0,1.32"
         style="fill:#010101;fill-opacity:1;fill-rule:nonzero;stroke:none"
         id="path254"
         inkscape:connector-curvature="0" /><path
         d="m 12738.5,2108.37 c -7.6,3.46 -15.1,6.31 -22.4,8.53 -73,22.27 -129.3,-15.81 -138.9,-97.24 l 4.8,-2.81 c 10.6,86.55 75.5,122.43 156.5,85.9 l 0,5.62 m 38.8,-22.41 0,-5.62 c 80.9,-56.93 145.4,-167.51 155.5,-266 l 4.9,-2.81 c -9.2,92.32 -65.1,195.16 -137.9,257.08 -7.4,6.21 -14.8,12.01 -22.5,17.35"
         style="fill:#010101;fill-opacity:1;fill-rule:nonzero;stroke:none"
         id="path256"
         inkscape:connector-curvature="0" /><path
         d="m 12743.3,2087.23 0.1,33.49 29.1,-16.83 -0.1,-33.49 -29.1,16.83 m 34.1,19.42 -38.8,22.42 -0.1,-19.51 0,-1.19 0,-5.62 -0.1,-18.29 38.9,-22.42 0,18.3 0,5.61 0,1.19 0.1,19.51"
         style="fill:#010101;fill-opacity:1;fill-rule:nonzero;stroke:none"
         id="path258"
         inkscape:connector-curvature="0" /><path
         d="m 12563.1,1988.67 0.1,33.49 29.1,-16.83 0,-33.49 -29.2,16.83 m 34.1,19.43 -15.2,8.76 -4.8,2.81 -18.8,10.84 -0.1,-44.61 38.8,-22.42 0.1,44.62"
         style="fill:#010101;fill-opacity:1;fill-rule:nonzero;stroke:none"
         id="path260"
         inkscape:connector-curvature="0" /><path
         d="m 12922,1781.46 0.1,33.49 29.1,-16.81 -0.1,-33.5 -29.1,16.82 m 34.1,19.43 -18.4,10.63 -4.9,2.82 -15.6,8.98 -0.1,-44.61 38.9,-22.44 0.1,44.62"
         style="fill:#010101;fill-opacity:1;fill-rule:nonzero;stroke:none"
         id="path262"
         inkscape:connector-curvature="0" /></g></g></svg>